<svg width="1792" height="1792" viewBox="0 0 1792 1792" xmlns="http://www.w3.org/2000/svg"><path d="m958 1.42e3c0-17-6.04-31.5-18.1-43.6-12.1-12.1-26.6-18.1-43.6-18.1s-31.5 6.04-43.6 18.1c-12.1 12.1-18.1 26.6-18.1 43.6s6.04 31.5 18.1 43.6c12.1 12.1 26.6 18.1 43.6 18.1s31.5-6.04 43.6-18.1c12.1-12.1 18.1-26.6 18.1-43.6zm264-154v-900c0-8.67-3.17-16.2-9.5-22.5s-13.8-9.5-22.5-9.5h-588c-8.67 0-16.2 3.17-22.5 9.5s-9.5 13.8-9.5 22.5v900c0 8.67 3.17 16.2 9.5 22.5s13.8 9.5 22.5 9.5h588c8.67 0 16.2-3.17 22.5-9.5s9.5-13.8 9.5-22.5zm-230-1.03e3c0-10.7-5.33-16-16-16h-160c-10.7 0-16 5.33-16 16s5.33 16 16 16h160c10.7 0 16-5.33 16-16zm318 30v1.14e3c0 34.7-12.7 64.7-38 90s-55.3 38-90 38h-572c-34.7 0-64.7-12.7-90-38s-38-55.3-38-90v-1.14e3c0-34.7 12.7-64.7 38-90s55.3-38 90-38h572c34.7 0 64.7 12.7 90 38s38 55.3 38 90z"/></svg>
